<svg xmlns="http://www.w3.org/2000/svg" viewBox="0 0 64 64" width="64" height="64">
  <!-- Tuque (hat) -->
  <ellipse cx="32" cy="12" rx="10" ry="5" fill="#1e22d0"/>
  <rect x="22" y="12" width="20" height="10" rx="2" fill="#e85d1a"/>
  <rect x="22" y="16" width="20" height="3" fill="#f9c80e"/>
  <circle cx="32" cy="10" r="4" fill="#e85d1a"/>
  <!-- Head -->
  <ellipse cx="32" cy="32" rx="14" ry="16" fill="#fde4d4"/>
  <!-- Ears -->
  <ellipse cx="20" cy="20" rx="4" ry="8" fill="#fde4d4" transform="rotate(-15 20 20)"/>
  <ellipse cx="20" cy="20" rx="2.5" ry="5" fill="#f5a070" transform="rotate(-15 20 20)"/>
  <ellipse cx="44" cy="20" rx="4" ry="8" fill="#fde4d4" transform="rotate(15 44 20)"/>
  <ellipse cx="44" cy="20" rx="2.5" ry="5" fill="#f5a070" transform="rotate(15 44 20)"/>
  <!-- Eyes -->
  <circle cx="26" cy="30" r="3" fill="#1a1a2e"/>
  <circle cx="38" cy="30" r="3" fill="#1a1a2e"/>
  <circle cx="27" cy="29" r="1" fill="white"/>
  <circle cx="39" cy="29" r="1" fill="white"/>
  <!-- Nose/mouth -->
  <ellipse cx="32" cy="38" rx="6" ry="4" fill="#f5a070"/>
  <circle cx="30" cy="37" r="1" fill="#1a1a2e"/>
  <circle cx="34" cy="37" r="1" fill="#1a1a2e"/>
  <path d="M29 40 Q32 43 35 40" fill="none" stroke="#1a1a2e" stroke-width="1" stroke-linecap="round"/>
  <!-- Scarf -->
  <path d="M20 44 Q32 50 44 44" fill="none" stroke="#3b4ff6" stroke-width="4" stroke-linecap="round"/>
  <rect x="28" y="46" width="5" height="10" rx="2" fill="#3b4ff6"/>
  <rect x="28" y="48" width="5" height="2" fill="#e85d1a"/>
  <rect x="28" y="52" width="5" height="2" fill="#e85d1a"/>
</svg>
